# xmcd
#
# Track frame offsets:
#	150
#	16448
#	32284
#	48239
#	69780
#	83404
#	99136
#	115871
#	132482
#	144054
#	161375
#	179916
#	197021
#	210872
#	226280
#	240276
#	257859
#	272337
#	295635
#	312666
#
# Disc length: 4495 seconds
#
# Revision: 0
# Processed by: cddbd v1.5.1PL0 Copyright (c) Steve Scherf et al.
# Submitted via: EasyCDDAExtractor 8.2.1.1
#
DISCID=f9118d14
DTITLE=Emmylou Harris - The Very Best Of Emmylou Harris - Heartaches and Highway
DTITLE=s
DYEAR=2005
DGENRE=Country
TTITLE0=Love Hurts (With Gram Parsons)
TTITLE1=Boulder To Birmingham
TTITLE2=Making Believe
TTITLE3=Pancho And Lefty
TTITLE4=One Of These Days
TTITLE5=(Lost His Love) On Our Last Date (Live)
TTITLE6=Born To Run
TTITLE7=Beneath Still Waters
TTITLE8=If I Could Only Win Your Love
TTITLE9=Together Again
TTITLE10=That Lovin' You Feelin' Again (With Roy Orbison)
TTITLE11=To Know Him Is To Love Him (With Dolly Parton and Linda Ronstadt)
TTITLE12=Two More Bottles Of Wine
TTITLE13=Wayfaring Stranger
TTITLE14=Calling My Children Home
TTITLE15=Green Pastures
TTITLE16=Orphan Girl
TTITLE17=Michaelangelo
TTITLE18=Here I Am
TTITLE19=The Connection
EXTD=
EXTT0=
EXTT1=
EXTT2=
EXTT3=
EXTT4=
EXTT5=
EXTT6=
EXTT7=
EXTT8=
EXTT9=
EXTT10=
EXTT11=
EXTT12=
EXTT13=
EXTT14=
EXTT15=
EXTT16=
EXTT17=
EXTT18=
EXTT19=
PLAYORDER=
